<?xml version="1.0" encoding="UTF-8"?>
<svg width="944px" height="874px" viewBox="0 0 944 874" version="1.1" xmlns="http://www.w3.org/2000/svg" xmlns:xlink="http://www.w3.org/1999/xlink">
    <title>layer-ring</title>
    <defs>
        <path d="M504.316406,22 L504.318554,83.0480507 C690.183897,97.446166 838.346099,234.422563 853.920074,406.255667 L921.75,406.257812 C933.900264,406.257812 943.75,416.107548 943.75,428.257812 L943.75,444.242188 C943.75,456.392452 933.900264,466.242188 921.75,466.242188 L853.920074,466.244333 C838.346099,638.077437 690.183897,775.053834 504.318554,789.451949 L504.316406,850.5 C504.316406,862.650264 494.466671,872.5 482.316406,872.5 L461.433594,872.5 C449.283329,872.5 439.433594,862.650264 439.433594,850.5 L439.431446,789.451949 C253.566103,775.053834 105.403901,638.077437 89.8299261,466.244333 L22,466.242188 C9.8497355,466.242188 0,456.392452 0,444.242188 L0,428.257812 C0,416.107548 9.8497355,406.257812 22,406.257812 L89.8299261,406.255667 C105.403901,234.422563 253.566103,97.446166 439.431446,83.0480507 L439.433594,22 C439.433594,9.8497355 449.283329,5.68434189e-14 461.433594,5.68434189e-14 L482.316406,5.68434189e-14 C494.466671,5.68434189e-14 504.316406,9.8497355 504.316406,22 Z" id="path-1"></path>
    </defs>
    <g id="layer-ring" stroke="none" fill="none" transform="translate(0.125, 0.75)" xlink:href="#path-1" fill-rule="evenodd">
        <ellipse id="Scope-Ring" stroke="#FFFFFF" stroke-width="44" fill="#274DDD" cx="471.875" cy="436.25" rx="361.398438" ry="332.453125"></ellipse>
        <ellipse id="Scope-Ring-Copy" stroke="#FFFFFF" stroke-width="44" fill="#274DDD" cx="472.273438" cy="436.296875" rx="277" ry="254.5"></ellipse>
        <rect id="Tick-N" fill="#274DDD" x="439.433594" y="5.68434189e-14" width="64.8828125" height="204.492187" rx="22"></rect>
        <rect id="Tick-S" fill="#274DDD" x="439.433594" y="668.007812" width="64.8828125" height="204.492188" rx="22"></rect>
        <rect id="Tick-W" fill="#274DDD" x="0" y="406.257812" width="221.191406" height="59.984375" rx="22"></rect>
        <rect id="Tick-E" fill="#274DDD" x="722.558594" y="406.257812" width="221.191406" height="59.984375" rx="22"></rect>
    </g>
</svg>